mtllib cube.mtl
o Cube
v 1.000000 -1.000000 -1.000000
v 1.000000 -1.000000 1.000000
v -1.000000 -1.000000 1.000000
v -1.000000 -1.000000 -1.000000
v 1.000000 1.000000 -0.999999
v 0.999999 1.000000 1.000001
v -1.000000 1.000000 1.000000
v -1.000000 1.000000 -1.000000
vt 0.000000 0.000000
vt 1.000000 0.000000
vt 1.000000 1.000000
vt 0.000000 1.000000
vn 0.000000 -1.000000 0.000000
vn 0.000000 1.000000 0.000000
vn 1.000000 0.000000 0.000000
vn -0.000000 0.000000 1.000000
vn -1.000000 -0.000000 -0.000000
vn 0.000000 0.000000 -1.000000
s off
usemtl Face1
f 2/3/1 3/2/1 4/1/1
usemtl Face2
f 8/3/2 7/2/2 6/1/2
usemtl Face3
f 5/3/3 6/2/3 2/1/3
usemtl Face4
f 6/3/4 7/2/4 3/1/4
usemtl Face5
f 3/3/5 7/2/5 8/1/5
usemtl Face6
f 1/3/6 4/2/6 8/1/6

usemtl Face1
f 1/4/1 2/3/1 4/1/1
usemtl Face2
f 5/4/2 8/3/2 6/1/2
usemtl Face3
f 1/4/3 5/3/3 2/1/3
usemtl Face4
f 2/4/4 6/3/4 3/1/4
usemtl Face5
f 4/4/5 3/3/5 8/1/5
usemtl Face6
f 5/4/6 1/3/6 8/1/6
